<svg xmlns="http://www.w3.org/2000/svg" width="426.667" height="426.667" version="1.0" viewBox="0 0 320 320"><path d="M0 10.9C0 18.7.4 22 1.3 22.4c1 .5.9.7-.1 1.2C.3 24 0 45.4 0 125.3v101.2l3 2c1.7 1.1 3.2 2.9 3.5 4 1.7 8.6 1.2 11.1-1.9 9.9-1.4-.5-1.5-.9-.4-1.5 1-.7 1-.9.1-.9-.7 0-1.3-1.1-1.3-2.4 0-1.3-.7-2.6-1.5-3-1.3-.4-1.5.3-1.4 4.3.2 4.5.5 5 3.5 6.5 1.9.8 4.1 1.3 4.9.9 1.1-.4 1.8.1 2.1 1.5.4 1.2 1.2 1.8 2.3 1.5.9-.2 3 .3 4.6 1.1 1.7.9 4 1.6 5.2 1.6 1.2 0 2.4.4 2.7.9.7 1.2 8.4 2.1 11.8 1.4 1.5-.3 2.5-1 2.2-1.5-.3-.5-1.4-.6-2.3-.3-1.1.3-2.8-.4-4.2-1.7-2.3-2.1-6.4-4.1-11.4-5.6-1.1-.3-2.6-1.4-3.3-2.4-.7-1-2-1.8-2.8-1.8-.8 0-1.4-.9-1.4-2.1 0-1.1-.5-2.9-1.1-4-.6-1.1-.9-2.5-.7-3 .4-1.2 7.7 4.2 7.8 5.7 0 1.2 4.1 2.7 4.9 1.8.3-.3-.3-1-1.3-1.6-1.3-.7-1.5-1.2-.6-1.8 1.7-1.1-1-5.9-5.4-9.8-2-1.7-3.6-3.6-3.6-4.1 0-1.3-5.1-5.2-6-4.6-1.6 1-2.2-1.7-1-3.9.9-1.8.9-3.3-.3-7.2-.9-3.1-1.1-5.7-.6-7.1 1.1-3.1 2.5-2.9 3.4.4 1 4.3 6 13.8 12 22.8 3 4.6 5.5 9.1 5.5 9.9 0 .8.5 1.6 1 1.8.6.2 1.1 2 1.2 4.1.1 3.7 1.2 4.9 2.1 2.4.4-.8.6-.7.6.3.1.8 1.1 2 2.3 2.5 1.2.6 2.9 2.4 3.7 4.2.9 1.8 3 3.6 4.8 4.4 2.9 1.1 3.1 1.4 1.8 2.9-1.3 1.4-1.1 1.6 2 1.2 3.3-.4 5-2.2 2.3-2.2-1.8-.1-5.2-3.1-6.1-5.3-.3-.9-1.3-1.7-2.2-1.7-.8 0-1.5-.7-1.5-1.5 0-.9-1.1-2.1-2.5-2.7-2.6-1.2-3.4-2.8-1.4-2.8.8 0 .7-.6-.2-1.7-1.3-1.4-1.1-1.6 1.3-1.1 3.3.6 2.8-1.1-1.3-4.1-3.4-2.5-5.2-6.4-4.4-9.2.9-2.6 3.3-2.4 4.5.4.6 1.2 1.4 2.9 1.9 3.7.5.8 2.4 4.5 4.1 8.3 3.1 6.6 6.4 9.7 10.5 9.7 2.1 0 1.9-.7-1-3.6-1.3-1.3-3.7-4.5-5.2-7.2-1.5-2.6-3.3-5.1-4-5.5-.7-.4-1.3-1.5-1.3-2.2 0-.8-.4-1.5-.8-1.5-.8 0-4.2-6.9-4.2-8.5 0-.5-.7-1.6-1.5-2.5-2.1-2.3-3.6-14.6-2.6-21.1 2.2-13.2 4.2-18 9.8-23.8 1.3-1.3 2.6-4.1 2.9-6.2.7-4.2 3.3-8.7 3.4-5.8 0 .9-.9 4.2-2 7.5-8.7 25-9.8 57.4-2.1 57.4 1.3 0 3.2 2.7 6.6 9.7 2.7 5.4 5.7 10.4 6.7 11.2 1.1.7 3.3 3.1 4.9 5.4 1.7 2.4 2.9 3.3 2.9 2.4 0-2.1.4-2.1 3.6-.1 1.3.9 2.7 1.4 3.1 1 .4-.3 1.4.1 2.3.9 1.4 1.2 2.3 1.3 4.5.5 1.6-.6 3.1-.7 3.4-.2 1.1 1.7 5.2 2.1 5.8.6.3-.8.9-1.1 1.4-.8.5.3.6 1.1.2 1.7-.4.8-.2.8.9-.1 1.3-1 1.7-.9 2.2 1 .6 2.1.7 2.2 1.7.5.8-1.4 1.4-1.6 2.5-.6 1.1.9 1.4.9 1.4-.2 0-1 .3-1 1.2-.1.7.7 1.7 1.2 2.2 1.2.6 0 .5-.5-.2-1.2-1.6-1.6-1.5-3.8.2-3.8 1.6 0 2.7 5.5 1.4 6.8-.5.5.2.8 1.4.8 2.8-.1 3.9-1.5 3.2-4.1-.3-1.4 0-1.2 1.3.7 2.9 4.6 5.1 3.5 3.7-1.9-.5-1.7-1.2-2.1-4-1.8-3.3.2-4.5-.7-2.4-2 .6-.4.3-1.3-.9-2.3-2.4-2.1-3.7-6.2-2-6.2.7 0 1-.2.7-.5-.3-.3-1.3-.3-2.2.1-1.1.4-1.5 1.3-1 2.6.5 1.6.2 1.9-1.3 1.6-1-.2-1.7-1.1-1.6-2.2.1-1.1-.5-2.6-1.3-3.4-.9-.8-1.3-2.1-1-2.8.8-2.2-.4-4.4-2.4-4.4-1 0-2.5-.7-3.4-1.5-.8-.8-1.9-1.5-2.3-1.5-1.2 0-4.3-7.1-4.3-9.7 0-3.3 3.2-5.2 12.1-7 4.6-1 7.4-1.9 6.3-2.1-1.2-.2-4.9.3-8.3 1.1-4.6 1.1-6.3 1.2-6.6.3-.2-.6-1-3.6-1.9-6.6l-1.5-5.5.4 5.5c.3 3 .8 6.2 1 7.1.3 1-.4 2-2 2.7-3.1 1.4-5.8 1.6-5.1.3.3-.5-.1-1.2-1-1.5-.9-.4-1.4-1.3-1-2.1.3-.8.2-1.5-.2-1.5s-.8-1.2-.8-2.6c-.1-1.4-.9-3.3-1.8-4.3-1.9-2.1-2-3.8-.3-4.4.9-.4.8-.8-.3-1.6-.8-.5-1.1-1.3-.7-1.7.8-.8 1.5-1 10.1-1.7 7.3-.7 8.6-1.7 2.1-1.7-2.6 0-6.5-.5-8.5-1.1l-3.8-1.2 2.1-3.4c1.6-2.7 2-5 1.8-10.3-.2-6.2 0-7 2-8 1.8-1 1.9-1.4.8-2.2-.9-.6.6-.8 4.6-.3 3.3.3 8.7.8 12 1l6 .4-5.2-1c-4.9-1-5.3-1.2-4.7-3.5.8-3-.4-3.2-1.5-.2-.7 2-1.4 2.1-7.7 1.9-3.8-.1-7.1-.4-7.3-.7-.2-.2.7-2.6 2-5.3 2.3-4.9 2.5-5 7.5-5.7 6-.7 7.7 0 6.9 2.6-.3 1-.1 2.1.4 2.4.6.4 1.3-.9 1.7-2.8.8-4.5 2.6-6 6.4-5.3 1.6.4 3.2.2 3.5-.3.3-.6-.3-1-1.5-1s-3.1-.5-4.3-1.2c-1.2-.6-3.1-1.2-4.2-1.3-7.4-.6-13.2-3.5-7-3.5 1.4 0 2.5-.6 2.5-1.3 0-.8 1.1-2.7 2.5-4.3 1.4-1.6 2.3-3.4 2.1-4-.3-.7.5-.9 1.9-.6 1.2.2 2.6-.1 2.9-.7 1.1-1.7 2.6-1.3 2.6.6 0 1.5.1 1.5 1.9-.1 1.4-1.2 2.9-1.5 6.2-1.1l4.4.6-5.2-2.5c-5.2-2.4-7.2-4.3-3.3-3.1 1.1.4 2.7.1 3.5-.7 3.6-3.2 4.4-3.6 6.3-3.2 1.2.4 2.8-.3 4.4-1.9 2.9-2.8 2.6-4.7-.8-4.7-1.3 0-2.4-.5-2.4-1.1 0-.7 1.2-1 3-.7 1.9.3 3.1 0 3.5-1 .4-1.1.9-1.1 1.9-.3 1.6 1.4 2.7.4 1.9-1.7-.4-1 1.6.3 4.3 2.7 2.7 2.5 5.1 4.6 5.3 4.8.2.1-2.9 3.6-6.8 7.7-4 4-8.3 8.9-9.6 10.8-3.5 5.1-11.1 20.7-12.6 25.5-.8 3.1-1.8 4.3-3.1 4.3-1 0-1.8.4-1.8.9s.8.8 1.8.7c1.2-.1 1.6.5 1.4 1.9-.7 5.9-.2 16.2 1.2 25.3 1.2 7.9 2.5 12.1 5.6 18.2 4.6 9.1 6.2 10.8 2.4 2.5-1.4-3-2.7-7.1-2.9-9.2-.3-2.8-.2-3.1.3-1.3 2.6 8.6 8.3 17.9 15.3 24.8 13.5 13.2 19.5 15.7 37.8 15.7 10.5 0 11.9.1 9.5 1.2-1.6.6-6 1.5-9.7 1.9-3.7.4-6.5.9-6.2 1.2 1 1 15 1.1 15.6 0 .4-.6 1.6-.5 3.5.6l2.9 1.5-2.9.1c-2.1 0-2.7.3-2 1 .8.8 1.9.8 3.8 0 1.5-.5 4.3-1 6.1-1 2.7 0 3.8.6 4.9 2.7l1.5 2.8-.6-3.3c-.5-2.7-.3-3.1 1.1-2.6 1 .4 1.6.1 1.6-.9 0-.8 3-3.4 6.6-5.8 7.7-5 18.1-14.9 19.4-18.5 1.1-2.8 2.7-3 5.8-.8 1.2.8 2.6 1.3 3.1 1 .4-.3 2.2-.2 3.8.3 1.7.5 3.6.6 4.2.1.7-.4-2.2-1.7-6.8-3-4.5-1.2-8.1-2.5-8.1-2.8 0-.3.6-1.3 1.4-2.1.8-.9 2.6-5.3 4.1-9.9 1.5-4.6 3.3-8.6 4-8.8 1.1-.4 2.7-10.1 3-17.3 0-1 3.1-1.4 15.2-1.5 10.7-.1 15.6-.5 16.5-1.4 1.1-1.1 9.8-1.8 9.8-.8 0 .3-.4 1.6-1 3.1-.7 1.7-.6 4.1 0 7.1.6 2.5 1.3 6.3 1.5 8.4.6 4.8 1.1 4.6-17 5.6-7.1.5-12 1-10.7 1.2 1.8.3 2.2 1 2.3 4.3.2 5.2.3 5.6 1.2 6.6.5.4.8-.3.7-1.7-.5-6.4-.1-7.8 2.8-8.4 4.9-1.1 23.8-1.6 22.3-.6-1.2.6-1.2 1.2-.3 2.3.9 1.1.7 1.6-1.3 2.7-1.3.7-2.2 1.7-1.9 2.2.9 1.3-2.3 5.6-4.7 6.3-1.6.5-1.9 1.2-1.5 3.2.5 1.8.1 2.9-1.4 4.1-1.2.9-2.2 2.6-2.4 3.6-.4 2.9-2.6 3.2-2.7.4v-2.3l-1 2.5c-.9 2.2-1.2 2.3-2.2.9-.7-.9-2.2-1.9-3.4-2.3-1.8-.6-2.2-1.6-2.5-5.9l-.3-5.2-1.1 6.3c-1 5.9-1 6.2.8 5.6 2-.6 4.3.8 5.9 3.8.8 1.5.4 2.1-2.6 3.5-1.9.9-3.5 2.3-3.5 3 0 .9-.5 1.1-1.2.7-2.3-1.4-5.8-1.3-5.8.2 0 .8-.9 1.4-2 1.4-2.4 0-2.6-1.8-.4-3.5.9-.6 1.4-2 1.2-3.1-.4-1.7-.6-1.6-1.6.8-1.2 3-3.2 4.6-3.2 2.6-.1-.8-.6-.6-1.5.6-.8 1-1.2 2.4-.8 2.9.4.6 0 .8-1.1.4-1-.4-2.2-.7-2.7-.7-1.8 0-.8-1.8 1.4-2.5 1.4-.4 1.7-.8.9-1.2-2.9-1.2-5.8 4.6-3.2 6.2.8.5.7 1.1-.1 2.1-1.6 1.9-3.1 1.8-2.7-.2.2-1-.3-1.9-1-2.1-.7-.3-1 .1-.6 1.1s.1 1.6-.8 1.6c-1 0-1.5 1.1-1.6 3.1-.1 3.5-1.2 5.4-1.2 2.1 0-1.2-.4-2.2-1-2.2-1.7 0-1.1 3.9.9 5.9 1.9 1.9 1.9 1.9 2.5-.2.4-1.6.8-1.8 2-.8 1.1.9 1.5.9 1.9-.1.4-.8.6-.7.6.4.1 2.3.7 2.3 3.8-.2 1.4-1.1 3.6-2 4.9-2 1.3 0 2.4-.4 2.4-.8 0-.5 1.3-.7 3-.6 1.6.1 3.5-.4 4.1-1.2.7-.9 2-1.2 3.2-.8 1.8.6 1.9.3 1.4-2.5-.7-3.4.3-4 2.3-1.6.7.9 1.6 1.2 1.9.8 1.4-1.9 7.8-4.1 9.4-3.1 1.7.9 1.8.8 2.1-1.5.1-.7 1.5-1.2 3.3-1.2 1.7 0 3.1-.4 3-.9-.1-.6.7-1.1 1.8-1.3 4.9-.9 6.4-1.4 7.7-2.6 3.4-3.1 5.2-3.3 7.5-1 1.2 1.2 1.8 2.5 1.2 2.8-1.6 1.1.1 2.5 2.9 2.4 1.8-.1 2.1-.3.9-.6-1.8-.5-1.8-.5 0-1.9 1-.7 2.5-1.4 3.4-1.4.9 0 2.4-.9 3.4-2 1.2-1.4 2.2-1.7 3-1 .7.6 1.6.5 2.5-.3 1.2-1 1.2-.9.2.4-1 1.4-1 1.8.4 2.3 2.2.9 3 .1 3.7-3.4.4-1.6 1.1-3 1.7-3 .7 0 .7.7-.1 2.1-.9 1.7-.8 2 .3 1.7.7-.3 1.4-1.5 1.6-2.7.3-1.7.9-2.2 2.3-1.8 1.6.4 1.8.3.9-.8-.6-.7-1.9-1.1-2.8-.8-2.4.6-6.8-3-5.8-4.6.6-.9 1.4-.7 3.1.9 2.6 2.4 5.5 1.9 3.4-.6-.9-1.2-.9-1.8 0-2.7.9-.9 1.4-.9 2.1.3.6 1 1-24.3 1-68.6V82.3l-5.9-5.4c-3.2-3-10.4-8.3-16-11.8s-10-6.5-9.8-6.7c.2-.3 4 1.4 8.3 3.7 4.4 2.3 8 4.1 8.2 4.1 1-.7 2.2.1 2.2 1.3 0 .8.6 1.5 1.4 1.5 1.9 0 10.5 5.2 10.6 6.4 0 .5-.7.3-1.5-.4-1.7-1.4-3.1-.8-2 .9.3.6 1.5 1.6 2.6 2.1 1.8 1 1.9.6 1.9-15.2-.1-14-.3-16-1.4-14.5-1.8 2.4-3.1.4-1.5-2.4.9-1.7 1.3-1.9 2-.8.6.9.8-.5.7-4-.3-4.8-.6-5.5-2.5-5.6-1.2-.1-2.4.4-2.7 1.2-.7 1.8-4.3 1.6-5-.3-.6-1.5-.9-1.5-2.9.5-2.7 2.4-4.7 2.7-4.7.7 0-.8-.4-1.7-.9-2.1-1.9-1.1-.7 4 1.2 5.4 1.8 1.2 1.8 1.5.3 2.3-.9.5-1.6 1.4-1.6 2 0 .7.4.7 1.3 0 .7-.6 2.2-.9 3.3-.6 1.6.4 1.9-.1 2.1-2.7.3-3.9.8-4.5 2.6-3 1.1.8 2.1.8 4.3-.4 3-1.5 4.5-1.2 2.6.7-.7.7-1.2 2.2-1.2 3.5 0 1.3-.6 2.3-1.4 2.3-.7 0-2.1 1.1-2.9 2.4-1.8 2.6-9.1 4.1-11.5 2.3-.9-.7-1.7-.6-2.4.1-2 2-3 1.3-2.6-1.8.5-3.6 0-3.7-3.1-.4-1.6 1.7-3.3 2.4-5 2.2-3.5-.4-3.9-3.4-.7-6.3 1.4-1.3 2.6-2.9 2.6-3.4 0-.6 1.1-2.2 2.5-3.6 2.3-2.3 2.4-3 .3-2.6-1.3.2-.9-1.7.5-2.3.6-.3.3-.5-.8-.4-1.1.1-3.9-.7-6.2-1.9-4.1-2-4.2-2-5.9-.2-.9 1-2.2 1.5-2.8 1.1-.6-.4-1.9-.7-3-.7-3.3 0-4.3-3.1-2-6.2 3.2-4.3 6.2-5.5 12.2-4.8 4.3.4 5.2.3 5.2-1.1 0-1-.5-1.4-1.5-1-1.8.6-4.5-.2-4.5-1.5 0-.5.5-.9 1.1-.9 1.3 0 3.9-2.5 3.9-3.9 0-1.8 3.1-4.1 5.7-4.1 2.2 0 2.5.3 2.1 3-.6 3.7 1.1 3.9 4.5.7 1.3-1.2 4.2-3.9 6.6-6l4.2-3.7H0v10.9zm272.4-8c.3.4-.6 1.3-2 2-3.8 1.7-5.2 1.3-2.5-.9 2.5-2.2 3.7-2.5 4.5-1.1zM28 5c0 .5-.5 1-1.1 1-.6 0-.9.6-.6 1.4.6 1.5-1.6 3.9-4.5 4.9-2 .7-2.4 4.2-.8 5.2 1.6 1-.8 3.5-3.4 3.5-1.2 0-2.9-.9-3.9-2-1.9-2.2-2.3-5-.7-5 .6 0 .9.5.8 1.1-.2.6.3 1.4 1 1.6 1.1.4 1.7-1.4 1.3-4.4-.1-.8.5-1 1.3-.7 1.1.4 1.9-.3 2.6-2.1.7-1.9 1.5-2.5 2.9-2 1.3.4 2 0 2.4-1.5.5-2 2.7-2.8 2.7-1zm154.5 6c-1.1.5-2.9 1.2-4 1.6-1.7.6-1.5.8 1.5 1.5 1.9.4 3.9.5 4.5.1.5-.3 4.1-.7 7.8-.7 5.9-.1 6.6.1 5.1 1.2-1.6 1.2-11.1 1.9-17.4 1.4-2.2-.2-2.3-.1-1 1.3.9.9 3.6 1.6 6.8 1.7 2.9.1 5.5.6 5.8 1 .2.4 3.3 1.7 6.8 2.9 3.5 1.1 7.2 2.8 8.2 3.6 1.8 1.4 1.7 1.5-1.1 1.1-1.6-.3-8.2-1.9-14.5-3.5-6.3-1.7-14.4-3.3-18-3.8-6.1-.7-6.3-.8-3.2-1.6 5.4-1.4 3.6-2-4-1.3-10.7 1-21 3.9-27.7 7.8-3.2 1.9-8.9 4.5-12.6 5.8-3.7 1.2-8.3 3.3-10.2 4.6-2 1.3-3.7 2.3-3.8 2.1-.6-.6 3-4.3 6.3-6.6 1.8-1.3 3-2.7 2.7-3.2-.8-1.3 12.3-8.3 14.1-7.6.8.3 1.2.2.9-.4-.6-1 1.3-1.5 4.8-1.2.9.1 1.7-.2 1.7-.7 0-.8 3-2 7.5-2.8 1.1-.2 3.9-1.1 6.2-2 3.5-1.3 4.6-1.3 5.8-.3 1.2 1 1.8 1 3.1 0 1.2-1.1 1.5-1.1 1.2 0-.2.7.3 1.5 1.1 1.8 1 .3 1.2 0 .8-1.1-.5-1.3-.1-1.4 2.4-.7 2.2.7 2.9.5 2.9-.5 0-1.5 2.5-2.2 8-2.3 2.8-.1 3.1.1 1.5.8zm51.8 4c.7 0 .6.4-.3 1-1.7 1-4-.5-4-2.7 0-1.2.3-1.2 1.6.1.8.9 2.1 1.6 2.7 1.6zm33.7-1.6c0 .3-.4.8-1 1.1-.5.3-1 .1-1-.4 0-.6.5-1.1 1-1.1.6 0 1 .2 1 .4zm-17.9 2.8c.3.5.9.3 1.2-.6.4-.9 1.2-1.6 1.9-1.6 1.8 0 4.2 4 3 5.2-1.5 1.5-6.3 2-7.8.7-.8-.6-1.4-.7-1.4-.2 0 .6-1.6 1.8-3.5 2.9-2.6 1.4-3.8 1.5-4.6.7-.8-.8-2-.6-4.5.8-4.3 2.4-4.4 2.4-4.4 0 0-1.7 4.7-6.1 6.4-6.1.4 0 1.6-.9 2.8-2 1.6-1.5 3-1.8 6.2-1.3 2.2.3 4.4 1 4.7 1.5zM166 19.9c0 .5-3.9 2.5-8.7 4.5-4.9 2-9.5 4.1-10.3 4.6-.8.5-4.4 2.5-8 4.5-3.6 1.9-9.2 5.7-12.5 8.4-3.3 2.7-6.3 4.7-6.7 4.5-.3-.2-1 .1-1.4.7-.5.8-.2 1 .7.5.8-.4-.1.5-2 2.1-1.8 1.6-6.1 4.4-9.5 6.2-12.9 7-19.3 11.1-24.8 16-5.9 5.3-14.5 16.3-19.2 24.3-1.5 2.7-3.2 4.8-3.7 4.8-2 0-.7-5.1 2-8.2 1.5-1.8 2.6-3.9 2.4-4.5-.5-1.5 11.2-16.5 12.2-15.5.3.3.3-.1 0-1-.4-1.1.1-2 1.3-2.7 1.5-.8 2.2-.8 2.5.2.4 1.1.9.4 2.1-3.6.2-.8 2.1-2.2 4.3-3.2 2.1-1 5.2-2.9 6.8-4.2 3.5-2.9 12-8 22-13.2 3.9-2 8.3-4.5 9.9-5.6 2.6-1.7 2.7-2 1-2.7-1.5-.6-1.3-.7.7-.3 1.7.3 2.9-.2 3.9-1.5.8-1.1 1.8-2 2.3-2 1.7 0 13.2-5.3 14.2-6.6.8-.9 14.9-6.6 18.3-7.3.1-.1.2.3.2.8zM22.1 22.3c-1 .9-1.1.8-.5-.6.3-1 .9-1.5 1.2-1.2.3.3 0 1.1-.7 1.8zm-11.7 3.5c-.1.7-.2 2.4-.2 3.8-.3 3.8-2.2 1.8-2.2-2.2 0-2.4.4-3.4 1.3-3.2.6.3 1.2 1 1.1 1.6zM21 27.1c0 .6-.4.7-1 .4-.5-.3-1-1.1-1-1.6 0-.6.5-.7 1-.4.6.3 1 1.1 1 1.6zm218.6.4c.8 3.2 3.9 3.3 4.8.2.6-2.1.7-2.1 1.7-.4.8 1.3 1.8 1.7 3.4 1.3 2.8-.7 3.9.6 3 3.5-.9 2.6-5.2 2.3-4.7-.4.2-1-.3-1.7-1.2-1.7-1.3 0-1.4.5-.5 2.7.8 2.2.5 3.4-2.7 8.2-6.2 9.5-9.4 12.2-9.4 8.1 0-2.8-1.7-2.5-2.4.5-.4 1.4-1.4 2.5-2.2 2.5-2.8 0-.8-5.9 3.7-11.3 2.3-2.6 3.9-5 3.7-5.3-.3-.2-1.1.2-1.8 1.1-.7.8-1.9 1.5-2.6 1.5-2.1 0-1.7-2.7.6-4.3 1.1-.8 1.8-1.6 1.5-1.9-.3-.3.4-1.3 1.4-2.2 1.1-1 1.7-2.4 1.4-3.2-.3-.8 0-1.4.6-1.4s1.3 1.1 1.7 2.5zm-132.3 9.9c-.3.4-.9.2-1.4-.5-1.3-2.2-1.1-3.1.5-1.7.8.7 1.2 1.7.9 2.2zm11.3 1.1c1.3 1.2 1.1 1.6-1.6 3-1.7.9-3.7 1.4-4.3 1.2-.7-.2 0-1 1.5-1.7s2.5-1.7 2.2-2.2c-.3-.4-1-.5-1.6-.2-.7.4-.8.2-.4-.4 1-1.6 2.4-1.5 4.2.3zM109 40c0 .5-.9 1.4-2 2-2.2 1.2-2.7.1-.8-1.8 1.4-1.4 2.8-1.6 2.8-.2zm-13 8.8C77.1 65.7 68.1 76.3 54 98c-5.6 8.6-9.6 13.8-11.8 15-1.7 1.1-3.2 1.7-3.2 1.4 0-.4 3.4-7.6 6.7-13.9.9-1.7 2.6-4.1 3.8-5.5 1.2-1.4 3.2-4.1 4.5-6 1.3-1.9 2.7-3.7 3-4 .4-.3 2-2.6 3.7-5.1 1.7-2.5 3.9-5.1 4.8-5.9.9-.7 2.1-2.3 2.7-3.4 1.9-3.6-12.8 12.7-18.9 21-13.4 18-15.1 21.1-21.4 37.7-5.1 13.4-8.2 29.5-10.5 54.2-.4 3.8-1.2 7.3-1.8 7.7-.8.6-.6 1.1.4 1.9 1 .7 1.1 1.2.4 1.5-.7.3-.9 2.4-.6 5.7.5 4.7.3 5.1-1.1 3.9-1.4-1.2-3.3-7.7-4-14.2-.1-1.5-.8-2.4-1.6-2.2-1.1.2-1.3-.8-.7-5 .3-2.9.8-6.2 1-7.3.3-1.1.5-2.7.5-3.6.1-.9 1.2-2.8 2.6-4.3 1.5-1.6 2.2-3.3 1.8-4.2-.4-1 0-2 1-2.5.9-.5 2.2-4 3.2-8 4.1-18.2 11.6-38.7 17.3-47.2 1.5-2.2 3.3-4.9 3.9-6.1.7-1.2 1.3-1.7 1.3-1.3 0 .9 3-1.8 3-2.8 0-.8 5.2-8.7 7.4-11 1-1.1 2.9-3.7 4.2-5.8 1.3-2 5.9-7.1 10.1-11.2 6-5.7 8-7.1 8.6-6 1.1 2.1 2.3 1.9 2.3-.4 0-1.1-.5-1.7-1.1-1.3-.5.3-.4-.2.4-1.1.7-.9 1.7-1.4 2.3-1.1.5.3 3.7-2.3 7.2-5.8 4.9-5.1 6.5-6.2 7.8-5.5 1.1.8 2.5.3 5.4-1.9 2.1-1.6 4.1-3.3 4.3-3.7.1-.5.6-.5 1-.2.3.4-3.2 4.1-7.9 8.3zM266.5 45c.8 1.3-.5 1.3-2.5 0-1.3-.8-1.3-1 .2-1 .9 0 2 .4 2.3 1zm8.1 4c2.4 1.7 4.4 3.3 4.4 3.6 0 .6-.3.4-6.9-3.8-2.5-1.5-3.9-2.8-3.2-2.8.7 0 3.2 1.4 5.7 3zM99.4 50.2c-.7 1.7-9.3 8.2-10 7.6-.6-.6 8.5-8.8 9.7-8.8.5 0 .6.6.3 1.2zM77 53c0 .5-.5 1-1.1 1-.5 0-.7-.5-.4-1 .3-.6.8-1 1.1-1 .2 0 .4.4.4 1zm207.4 2.5c1.1.8 1.5 1.5 1 1.5-.6 0-1.9-.7-3-1.5-1-.8-1.4-1.4-.9-1.4.6 0 1.9.6 2.9 1.4zM61.6 68.7c-2.1 1.9-3 2.2-4.6 1.3-1.1-.6-2-1.4-2-1.8 0-1.3 4.4-2.8 6.8-2.3l2.4.4-2.6 2.4zm-8.3 8.1c-2.5 2.6-7.3 5.1-7.3 3.9 0-.3.7-1.8 1.5-3.3 1-2 2.4-3.1 4.7-3.4 1.8-.3 3.5-.5 3.7-.3.2.1-1 1.5-2.6 3.1zm-13.3 5c0 .4-.9 1.3-2 2-1.6 1-2 1-2-.1 0-.8.3-1.7.7-2 .9-.9 3.3-.9 3.3.1zm36.5 4.3c-1.4 2.7-4.4 8-6.7 11.7-3.5 5.7-8.7 16.2-15.1 30.2-.8 1.9-2.3 8.2-3.2 14-2 12.6-4 16-3.2 5.4.3-3.9 1.2-8.8 2.1-10.8.8-2 1.3-3.6 1.2-3.6-1.3 0-7.1 11.1-9.5 18.1-2.7 8.2-2.9 10.7-.7 12.1.6.4-.1 1.1-1.7 1.7-2 .8-2.5 1.5-2 2.8.3 1 .2 1.5-.2 1.1-1-.9-3.8 6.4-7.1 18.2-1.6 5.8-2.3 7.5-2.4 5.5-.1-1.7-.4-3.9-.6-5-.2-1.1-.7-3.7-1-5.7-.3-2.1-1-3.5-1.5-3.2-1.5.9-1-1.3.6-2.6.8-.7 1.5-2 1.5-2.9.1-.9 1.4-5.4 3-9.9 1.6-4.6 2.6-9 2.3-9.8-.4-1 0-1.2 1.1-.8 1.8.7 2.2-1.1.5-2.1-1.3-.8-.3-9 1.7-14.7.7-2 3.1-6.5 5.3-9.8 2.3-3.4 4.1-6.6 4.1-7.1s.3-.9.8-.9c.4 0 1.8-2 3.2-4.5 2.5-4.6 5-5.9 5-2.6 0 2.1-6.9 16.2-12.9 26.6-4 6.7-5.8 12.2-2.7 8 .8-1.1 1.2-2.3 1-2.7-.3-.5.3-.8 1.3-.8 2.3 0 5.3-4.6 8.7-13.6 1.5-4 3.5-7.9 4.6-8.9 1-.9 3-4.2 4.5-7.3C60.9 107 77.7 81 78.6 81c.3 0-.7 2.3-2.1 5.1zm109 13c-1.2 5.4-3.4 9.8-5.4 10.9-2.8 1.5-18.3-.1-18.9-1.9-.3-.8 0-1.1.7-.7 2 1.3 3.1-.4 1.3-2.2-1.1-1.2-2-1.4-2.4-.8-.5.8-.8.7-.8-.1 0-1.8 1.9-2.6 2.6-1 .2.7 1.1 1.4 1.9 1.4.8 0 1.2-.4.9-.8-.2-.4.4-1.2 1.3-1.8 1.1-.6 1.3-1.1.5-1.1-.7 0-1-.5-.6-1.1.4-.6 1-.7 1.5-.2 1.1 1.1 7.1.4 6.4-.7-.3-.5.3-.6 1.3-.3 1 .2 2.4-.3 3.1-1.1.8-.9 2.7-1.6 4.3-1.6 2.8 0 2.9.2 2.3 3.1zm-28 4.7c.3 1.5.8 3.5 1.1 4.4.4 1.2 0 1.8-1.1 1.8-1 0-6.4 1.9-12.2 4.2l-10.5 4.1-4.3-4.9c-2.4-2.7-3.9-5.1-3.3-5.3.7-.2 2 .6 3 1.9 1.4 1.8 2.1 2 3.2 1 .8-.6 1.2-1.8 1-2.5-.6-1.6 4.4-4.5 7.6-4.5 1.1 0 3-.9 4.2-2 1.2-1.1 3-2 3.9-2 1 0 2.1-.5 2.4-1.1 1-1.5 4.2 1.7 5 4.9zm39-4.4c1.1.1 2.5.8 3.2 1.6 1 1.3 1.4 1.3 2.5.1s1-1.3-.4-.8c-1 .4-1.8.2-1.8-.3 0-1.4 1-1.3 6.1.5 2.4.9 4.9 1.3 5.5 1.1.7-.3 1.8.2 2.5 1s1.9 1.2 2.7.9c1.2-.4 1.2-.3.3.9-.7.8-.9 2.5-.6 3.8.5 1.8-.5 3.6-4.7 8.5-4.5 5.2-5.5 6-6.8 4.8-2-1.7-10.6-5.9-15.2-7.4-5.4-1.8-6.1-3.1-4.2-7.7.9-2.1 2-4.9 2.5-6.2.7-1.9 1.3-2.1 3.6-1.5 1.6.4 3.7.7 4.8.7zM23.2 110.2c-.8.8-.9.4-.5-1.3.4-1.3.8-1.8 1.1-1 .2.7-.1 1.8-.6 2.3zm4.3-2.2c.3.5.1 1-.4 1-.6 0-1.1-.5-1.1-1 0-.6.2-1 .4-1 .3 0 .8.4 1.1 1zm-4.2 6.8c-.6 1.3-.8 1.3-1.4-.4-.4-1-.8-1.3-.8-.7-.1.7-.6 1.3-1.2 1.3-.8 0-.8-.4.1-1.4 1.5-1.9 4.1-1 3.3 1.2zm19.3 3.9c-1.8 3.3-2.1 1.7-.5-2.4.6-1.5 1.3-2.3 1.6-1.6.2.6-.3 2.4-1.1 4zm186.1-1.4c.4-1 .8-.9 2 .2.8.8 2.3 1.5 3.3 1.5 1.7 0 3.3 1.4 3.6 3.2.1.5.2 1.1.3 1.5.1.5.8 0 1.5-1 1.2-1.5 1.4-1.6 2-.2.3.8 1.2 1.5 2.1 1.5.8 0 1.5.4 1.5.9s.2 1.6.5 2.3c.7 1.6-11.8 7.9-19.7 10-4.5 1.1-4.9 1.1-7.3-1.2-1.4-1.3-2.5-2.9-2.5-3.5 0-.7-1.6-2.9-3.6-4.9l-3.7-3.8 3.9-3.9c2.1-2.1 4.4-3.9 5.1-3.9.7 0 1.3-.4 1.3-1 0-.5 2.1 0 4.7 1.3 3.4 1.6 4.7 1.9 5 1zm-207.4 3.1c-.3 1.8-.1 3.6.5 4 1.3.8-.5 10.8-2.2 12.1-1.7 1.3-4 11-3 12.6.4.8.3.9-.4.5s-1.2-.1-1.2.8c0 .8-.5 3.8-1.1 6.5-.9 4.4-1.3 4.9-2.5 3.7-.7-.8-1.8-1.6-2.3-1.8-.5-.1-.1-4.1.9-8.8 1.7-8.1 2.1-9.7 4-14.5 1.6-4.3 3-9.2 3.6-13.2.4-2.4 1-4 1.5-3.7.5.3.9 0 .9-.5 0-.6.4-1.1.9-1.1.6 0 .7 1.5.4 3.4zm93.7-.4c0 .5-.4 1-1 1-.5 0-1-.5-1-1 0-.6.5-1 1-1 .6 0 1 .4 1 1zm134 15c0 .6.9 2.3 1.9 3.8 1.5 2 5.1 15.5 5.1 18.8 0 1-11.5 3.6-18.1 4.1l-7.6.5-.1-3.4c-.1-4.1-3.2-11.7-5.7-14.2s-1.3-3.3 10.6-7.1c11.2-3.6 13.9-4.1 13.9-2.5zm7 .4c0 .2-.7.7-1.6 1-.8.3-1.2.2-.9-.4.6-1 2.5-1.4 2.5-.6zm-89.7 24.3c.3 7.9.2 14.3-.2 14.3-1.5 0-1.8-3.2-1.5-16 .3-13.7.2-13.5.8-12.9.2.2.6 6.8.9 14.6zm-81.6-11.1c-.3.3-1.2.4-1.9.1-.8-.3-.5-.6.6-.6 1.1-.1 1.7.2 1.3.5zm-67.4 3.9c-.3.9-.8 1.4-1 1.1-.3-.3-.2-.9.2-1.5.9-1.6 1.5-1.3.8.4zm129.9 20.7c.5 11.2 1.3 24.1 1.7 28.8l.8 8.5.4-8.5c.2-4.7.3-10.4.3-12.7 0-3.9.1-4.1 1.6-2.8.9.8 2.6 1.5 3.8 1.5 1.1 0 2.3.4 2.6.9.3.5.9 10.4 1.2 22l.7 21.1h-5.7c-5.4 0-5.6-.1-5.6-2.8 0-2.1-.2-2.4-1-1.2-.5.8-1 2.4-1 3.5 0 1.8.7 2 8 2.1 7.5.1 8 0 7.4-1.8-1-3.4-.6-43 .6-44.2.5-.5 1-1.7 1-2.5 0-1.2-.3-1.2-1.2-.3-1.7 1.7-6.9 1.5-9.5-.3-1.2-.8-2.4-2.9-2.8-4.6-.9-4.1.2-9.6 1.9-9.6.8 0 1.3.7 1.1 1.6-.3.9-.7 2.7-1.1 4.1-.6 2.3-.4 2.3 2.1-.8 3.1-3.8 7.7-4.4 9.7-1.2.7 1.1 1.8 2 2.5 2s1.3.6 1.3 1.4c0 1 2.3 1.7 8.3 2.4l8.2.9-6 .3c-3.3.2-7.3.3-9 .3h-3v53.4l6.8-.5c4.6-.3 6.7-.1 6.7.7 0 .6-.4 1.1-.8 1.1s-1.3 1.4-1.9 3c-3 7.9-22.2 9.2-35.3 2.4-6.5-3.3-21.1-15.8-23.2-19.9-.6-1.1 1.9.8 5.6 4.2 3.7 3.5 7.3 6.3 8.1 6.3 1.7 0 1.9-4.8.4-9-.7-1.9-.8-1.4-.5 2.2.2 2.7 0 4.8-.5 4.8-.4 0-2.1-1.2-3.8-2.8-2.9-2.6-3.1-3.2-3.7-13.2-.6-10.5.3-16 2.6-16 2.5 0 4.5 3.6 5.1 8.9.6 5.3.6 5.1.8-2.7l.1-8.2h-4.5c-2.5 0-4.5-.4-4.5-.9 0-1 5.8-2.1 11.1-2.1 1.9 0 4.4-.7 5.5-1.5 1.7-1.3 1.3-1.4-5.1-1.4-3.8 0-8.8.3-10.9.7l-4 .7.3 6c.1 3.3.6 6.4 1 7 .4.5.9 4.8 1 9.5l.2 8.5-2.4-3.5c-2.7-4-4-7.2-6-15-1.9-6.9-2.8-17-1.7-17 .5 0 1.1 1.9 1.3 4.2.2 2.4.4.4.5-4.3.3-15.3 1.3-23.8 2.8-23.2.7.2 1.6 3 2 6.1.5 3.2.9 6 1 6.4.1.5.2 1.6.3 2.5.1 1.5 1.2 1.8 7.6 1.8 4.6 0 7.9.5 8.7 1.2.6.7 2.4 1.3 3.9 1.3h2.7l.7-15.6c.4-8.5.9-15.3 1.2-15 .3.2.9 9.6 1.5 20.8zm-11.6-12.6c-.9 3.3 1 3.1 2.8-.4l1.5-2.7.1 2.9c0 1.6-.3 2.7-.6 2.3-.6-.6-3.4 1.6-3.4 2.7 0 1.2 2.8.6 3.3-.7.2-.6.7 2.6 1.1 7.2.4 4.6.5 8.6.2 8.8-.3.3-2.1 0-4-.7l-3.6-1.2.2-10.6c.1-5.9.3-11.3.6-12.1.9-2.3 2.5 1.7 1.8 4.5zM129 157c0 .5-.4 1-1 1-.5 0-1-.5-1-1 0-.6.5-1 1-1 .6 0 1 .4 1 1zm-103 1.7c0 4.2-2.2 14.8-3.1 15.4-.6.3-1.3 3.4-1.6 6.8-.3 3.3-1 6.1-1.5 6.1-.6 0-.7-1.6-.4-3.8.3-2 .8-5.7 1.1-8.2.8-7.1 1.6-11.2 2.8-14.8 1.2-3.5 2.7-4.3 2.7-1.5zm103.3 6c.3 3.2.6 7.5.7 9.5.1 3.7 0 3.8-3.5 3.8H123l.4-5.4c.6-6.9 2.6-13.6 4.2-13.6.7 0 1.4 2.1 1.7 5.7zm130.1 1.9c.4 4.2.5 7.9.2 8.1-.3.3.1 1.2.9 2 2.3 2.3 1.8 3.1-2.7 4.3-3.9 1.1-13.7.8-21.5-.6-3.1-.6-3.3-.9-3.3-4.8 0-2.2-.3-5.7-.6-7.7l-.6-3.6 8.3-1.2c4.6-.6 10.2-1.8 12.4-2.6 2.2-.8 4.5-1.4 5.1-1.5.7 0 1.4 3.1 1.8 7.6zM8.5 169.2c-2.3 5.8-2.5 6-2 2.3.3-2.2 1-5.8 1.6-7.9.9-3.2 1.3-3.7 2-2.4.6 1.2.1 3.6-1.6 8zm60.2-5.9c.2.3-1.3.7-3.4 1-4.2.7-4.8.4-4-1.7.5-1.2 1.3-1.3 3.8-.6 1.7.5 3.3 1.1 3.6 1.3zm202-.7c-.9 1-9.7.9-9.7-.1 0-.6 2-.9 5.1-.6 2.8.1 4.8.5 4.6.7zm-257.7 3c0 .8-.5 1.2-1 .9-.6-.4-.8-1.1-.5-1.6.9-1.4 1.5-1.1 1.5.7zm250 1.8c0 .8.6 1.6 1.4 1.8 1 .2 1.1.9.4 2.7l-.9 2.5-1.4-2.8c-1.7-3.3-1.9-5.6-.5-5.6.6 0 1 .6 1 1.4zm3.7-.8c-.3.3-1.2.4-1.9.1-.8-.3-.5-.6.6-.6 1.1-.1 1.7.2 1.3.5zM72 173.4c0 .3-.4.8-1 1.1-.5.3-1 .1-1-.4 0-.6.5-1.1 1-1.1.6 0 1 .2 1 .4zm192 2.6c0 .5-.2 1-.4 1-.3 0-.8-.5-1.1-1-.3-.6-.1-1 .4-1 .6 0 1.1.4 1.1 1zm-192 4.6c0 .8-.4 1.4-1 1.4-.5 0-1-.9-1-2.1 0-1.1.5-1.7 1-1.4.6.3 1 1.3 1 2.1zm206.5 2.2c-.8.8-2.5-1-1.9-2 .4-.6.9-.5 1.5.3.4.7.6 1.5.4 1.7zm-207.8 2.4c-.3.8-.6.5-.6-.6-.1-1.1.2-1.7.5-1.3.3.3.4 1.2.1 1.9zm209.5 1.7c.2 1.7.1 2.8-.4 2.5-.8-.5-1.2-5.4-.4-5.4.2 0 .6 1.3.8 2.9zm-276 .3c-.7.7-1.2.8-1.2.2 0-1.4 1.2-2.6 1.9-1.9.2.3-.1 1.1-.7 1.7zm21.8 4c.6 2.9 1.3 8.7 1.5 12.9.3 4.2 1.1 9.6 1.8 12 1.4 4.6 1.2 7.9-.4 7.9-.5 0-.9-.5-.9-1.1 0-.5-.4-.8-.9-.5-1.1.7-4.7-3.3-6-6.7-2.1-5.3-.9-14.8 1.5-12.4.8.8 1.7 5.1 1.6 7.9-.1 1.5.3 3 .8 3.3 1.4.9 1.2-4.7-.5-14.5-.8-4.7-1.5-9.7-1.5-11.3 0-4.5 1.8-3 3 2.5zm-4.2 4.8c0 3.4 0 3.4-1.2-1-.6-2.5-1-5.2-.7-6 .7-2 1.9 2.4 1.9 7zm159.9-6.3c-1.3 1.2-13.7 1.6-13.7.4 0-.7 2.7-1.1 7.2-1.1 3.9 0 6.8.3 6.5.7zm-10.7 5.5c0 1.9.2 2 1 .8.8-1.3 1.1-1.2 2.4.5 1.8 2.4 1.9 3.2.6 4-.8.5-.7 1.1.1 2.1.6.8.8 1.4.4 1.4s-.3.6.3 1.3c.6.7 1.2 5.9 1.3 11.5.2 8.7-.1 10.5-1.6 12.2-1 1.2-2.4 1.9-3.1 1.6-.7-.3-1.5 0-1.7.7-.2.7-.7.9-1.1.5-1.1-1-.7-27.2.4-27.6.5-.2.5-1.3-.1-2.8-1.2-3.3-1.2-8.4.1-8.4.6 0 1 1 1 2.2zm107.2 5c-.7.7-1.2.8-1.2.2 0-1.4 1.2-2.6 1.9-1.9.2.3-.1 1.1-.7 1.7zM61.7 209c.1 1.1-.2 2-.6 2-.4 0-1.3 1-1.9 2.2-.9 1.9-1.1 2-1.1.5-.1-1.4 2.5-6.7 3.3-6.7.1 0 .2.9.3 2zm4.3-.5c0 .8-.4 1.5-1 1.5-.5 0-1-.7-1-1.5s.5-1.5 1-1.5c.6 0 1 .7 1 1.5zm-15 4c.7.9 1 1.8.7 2.2-.8.7-3.7-1.5-3.7-2.8 0-1.4 1.6-1.1 3 .6zm15.4 1c-.4.8-.1 1.5.5 1.5s1.1.7 1.1 1.5-.5 1.5-1.1 1.5c-.6 0-.8.9-.4 2.2.7 2.2.6 2.2-1.1.5-1.5-1.4-1.6-1.9-.6-2.6.9-.5 1.1-1.7.6-3.4-.4-1.7-.2-2.7.5-2.7.6 0 .8.7.5 1.5zM49 216c0 .5-.4 1-1 1-.5 0-1-.5-1-1 0-.6.5-1 1-1 .6 0 1 .4 1 1zm13 1c0 1.1-.7 2-1.5 2-1.5 0-2.1-2.1-.8-3.3 1.2-1.3 2.3-.7 2.3 1.3zm-9.3 1.8c-2.1.4-2.1 1.2-.1 2.7 1.2.8 1.4 1.7.8 2.8-1.5 2.7-4.5-3-3.3-6.2.8-2 1.1-2.2 2.6-1 1.5 1.3 1.5 1.4 0 1.7zm4.3-.3c0 .8-.4 1.5-1 1.5-.5 0-1-.7-1-1.5s.5-1.5 1-1.5c.6 0 1 .7 1 1.5zm24.5 8c.7 5.9.7 6-1.3 4.2-1.1-1-2.4-3.6-3-5.8-.8-3.3-.7-4.1.7-4.8 2.3-1.3 2.8-.4 3.6 6.4zm-17.1-4.3c.8 3.3.8 3.8-.7 3.8-.8 0-1.4-.6-1.4-1.3 0-.6-.4-2-.8-3-.5-1.2-.3-1.7.8-1.7.8 0 1.7 1 2.1 2.2zm4.1 1.8c.3.5.1 1-.4 1-.6 0-1.1-.5-1.1-1 0-.6.2-1 .4-1 .3 0 .8.4 1.1 1zm-8.7 5.9c.3.8-.1 1.2-.9.9-.7-.2-1.5-1-1.7-1.7-.3-.8.1-1.2.9-.9.7.2 1.5 1 1.7 1.7zm29.9 4.4c-.5 1.7-4.2 2-5.5.4-1-1.1-.5-1.4 2.4-1.5 2.4-.1 3.4.3 3.1 1.1zm-6.7 2.5c0 1.5-.2 1.5-1 .2-1.3-2-1.3-3.3 0-2.5.6.3 1 1.4 1 2.3zm9.6-1.2c-.3.8-.1 2.4.5 3.5 1.2 2.4-.3 4.9-3 4.9-1.4-.1-1.4-.2.2-1.4 1.7-1.3 1.7-1.5.1-2.4-1.1-.6-1.4-1.4-.8-2.3.5-.8.9-1.7 1-2.2.3-1.6.4-1.7 1.5-1.7.6 0 .8.7.5 1.6zm203.1 1.1c-.3.3-1.1.2-1.7-.2-.9-.6-.9-1 .1-1.6 1.4-.8 2.7.7 1.6 1.8zM80 238.5c0 .8-.4 1.5-.9 1.5-1.3 0-2.2-1.6-1.4-2.4 1.1-1.1 2.3-.6 2.3.9zm5.4 1.9c-.6 1.5-2.4 2.3-2.4 1.1 0-.8 2.4-3.4 2.8-3 .1.1 0 1-.4 1.9zM261 242c0 .5-.4 1-1 1-.5 0-1-.5-1-1 0-.6.5-1 1-1 .6 0 1 .4 1 1zm-173.6 1.5c-.4.8-1.3 1.5-2.1 1.5-1.3 0-1.3-.3-.3-1.5.7-.8 1.6-1.5 2.1-1.5s.6.7.3 1.5zm156.7 1.8c-.8.8-1.1.7-1.1-.4 0-2 1.3-3.4 1.8-1.9.3.7-.1 1.7-.7 2.3zm3.9-2.3c0 .5-.4 1-1 1-.5 0-1-.5-1-1 0-.6.5-1 1-1 .6 0 1 .4 1 1zm-185.6 3.6c.5 1.4.4 1.5-.9.4-1.7-1.4-1.9-2-.6-2 .5 0 1.2.7 1.5 1.6zM242 246c0 .5-.4 1-1 1-.5 0-1-.5-1-1 0-.6.5-1 1-1 .6 0 1 .4 1 1zm-4 1.4c0 1.7-1.4 2.9-2.3 2-.8-.8.3-3.4 1.4-3.4.5 0 .9.6.9 1.4zm-151 0c0 1.1-1.9 1.5-2.5.6-.3-.5.1-1 .9-1 .9 0 1.6.2 1.6.4zm-3 5c-1.4 1.4-2.4 0-1.6-2.1.6-1.5.8-1.5 1.6-.3.6.9.5 1.9 0 2.4zm11-.3c0 .5-.7.9-1.5.9-1.5 0-2-1.2-.9-2.3.8-.8 2.4.1 2.4 1.4z"/><path d="M133.8 23.7c.7.3 1.6.2 1.9-.1.4-.3-.2-.6-1.3-.5-1.1 0-1.4.3-.6.6zM65.9 86.7c-1.3 1.6-1.2 1.7.4.4.9-.7 1.7-1.5 1.7-1.7 0-.8-.8-.3-2.1 1.3zM149.6 106.8c-.3.5.1.9.9.9s1.2-.4.9-.9c-.3-.4-.7-.8-.9-.8-.2 0-.6.4-.9.8zM237 126.7c0 .4.5 1.5 1 2.3.8 1.3 1 1.3 1-.2 0-.9-.4-2-1-2.3-.5-.3-1-.3-1 .2zM235.8 159.7c.7.3 1.6.2 1.9-.1.4-.3-.2-.6-1.3-.5-1.1 0-1.4.3-.6.6zM157 175.8c-2.6 2.1-2.1 5.5.9 7.2 2.9 1.5 5.6-2 4.4-5.6-1.2-3.5-2.4-3.9-5.3-1.6zm2.6 2.9c-1 1-1.9-.5-1-1.8.6-1.1.8-1.1 1.2 0 .2.7.1 1.5-.2 1.8zM121.8 183.7c-1.2 1.5-1 1.6 1.2 1 1.4-.4 5.2-.7 8.4-.7 7.7 0 6.7-.9-1.7-1.5-5.2-.3-6.8-.1-7.9 1.2zM141.5 193.4c-1.1.9-2.9 1.6-4 1.7-1.6.1-1.6.2.5.8 2.8.8 3.7 4.5 4.2 17.3.5 12.3 1.9 5.4 1.6-8.1-.3-13-.3-13.2-2.3-11.7z"/><path d="M142.6 222.6c-.3.9-.2 2.3.4 3.2.7 1.4.9 1 1-1.6 0-3.5-.5-4.1-1.4-1.6zM138 232.2c0 .5 1.1.8 2.5.8s2.5-.3 2.5-.8c0-.4-1.1-.7-2.5-.7s-2.5.3-2.5.7zM150.8 242.7c.7.3 1.6.2 1.9-.1.4-.3-.2-.6-1.3-.5-1.1 0-1.4.3-.6.6zM25 218.4c0 1.6.5 2.6 1.5 2.6.8 0 1.5-.6 1.5-1.4 0-.7-.7-1.9-1.5-2.6-1.3-1.1-1.5-.8-1.5 1.4zM170.7 206.7c-.4.3-.7 1.1-.7 1.7 0 .6.5.5 1.2-.2.6-.6.9-1.4.7-1.7-.3-.3-.9-.2-1.2.2zM316.8 6.7c-1.3 1.2-2 1.4-3.1.5-2.2-1.9-11.7 1.3-11.7 3.9 0 .5.3.8.8.7 1.9-.4 6.4 1.7 8.1 3.8 1 1.3 2.3 2.4 2.9 2.4.5 0 2.1 1.2 3.6 2.6l2.6 2.7v-9.2c0-5-.4-9.1-.8-9.1s-1.5.7-2.4 1.7zM300.5 25.8c-1.6.8-3.2 1.9-3.5 2.3-.3.4-1.2.4-2-.1-2.1-1.4-3-1.2-3 .5 0 .8.7 1.5 1.6 1.5 1 0 1.4.6 1.1 1.4-.3.8.1 1.7 1 2 1.7.7 3.3-.1 3.3-1.6 0-.6 1.6-2.6 3.5-4.4 3.6-3.6 2.9-4.2-2-1.6zM295.2 38.2c-.8 1-.4 1.3 1.4 1.4 1.5.1 2.4-.4 2.4-1.2 0-1.7-2.4-1.8-3.8-.2zM89.3 192.7c.9.2 2.5.2 3.5 0 .9-.3.1-.5-1.8-.5-1.9 0-2.7.2-1.7.5zM232 202.1c0 .5.4.9.9.9s1.7.3 2.7.7c1.1.4 1.5.3 1.1-.4-.9-1.4-4.7-2.4-4.7-1.2zM239.8 204.7c.7.3 1.6.2 1.9-.1.4-.3-.2-.6-1.3-.5-1.1 0-1.4.3-.6.6zM243.5 220c-.3.5-.1 1 .4 1 .6 0 1.1-.5 1.1-1 0-.6-.2-1-.4-1-.3 0-.8.4-1.1 1zM245.6 221.9c-.4.7-.5 1.5-.2 1.8.9.9 1.9-.4 1.4-1.8-.4-1.1-.6-1.1-1.2 0zM115 223.2c-.1 1.9 4.6 7.9 9.4 12.1 7.7 6.6 8.1 5.8.8-1.6-3.4-3.4-7-7.3-8.1-8.7-1.1-1.4-2-2.2-2.1-1.8zM262.6 224.6c-.4 1-.1 1.4.6 1.2 1.5-.5 2.3-2.8 1-2.8-.5 0-1.3.7-1.6 1.6zM240.9 229.9c1.1.7 1 1.1-.5 1.9-1 .6-1.6 1.4-1.2 1.8 1 .9 3.8-1.5 3.8-3.2 0-.8-.8-1.4-1.7-1.4-1.4 0-1.5.2-.4.9zM90.8 230.7c.7.3 1.6.2 1.9-.1.4-.3-.2-.6-1.3-.5-1.1 0-1.4.3-.6.6zM246.7 233.1c.7.7 1.5 1 1.8.7.3-.3-.2-.9-1.2-1.2-1.4-.6-1.5-.5-.6.5zM98 235c-.9.6-1 1-.3 1 .6 0 1.5-.5 1.8-1 .8-1.2.4-1.2-1.5 0zM236.2 234.9c.4 1.3 1.8 1.6 1.9.4 0-.4-.5-.9-1.1-1.2-.7-.2-1.1.2-.8.8zM102.5 236c-.3.5-.1 1 .4 1 .6 0 1.1-.5 1.1-1 0-.6-.2-1-.4-1-.3 0-.8.4-1.1 1zM215.5 236c1.3 2.2 3.9 5 4.7 5 .4 0 .6-.9.5-2-.1-1.1-.8-2-1.7-2-.9 0-2.2-.6-2.9-1.3-1.1-1-1.2-.9-.6.3zM232.6 235.9c-.3.5.3 1.1 1.5 1.4 1.6.4 1.8.3.8-.9-1.3-1.6-1.6-1.7-2.3-.5zM303.4 236.5c-.4.8-1.2 1.5-1.9 1.5-1.3 0-2.6 2.2-2.4 4.3 0 .7.4.2.9-1.1.9-2.2 5-3.2 5-1.2 0 .5.7.7 1.5.4.8-.4 1.5-1.1 1.5-1.6 0-.6-.7-.7-1.6-.4-1.3.5-1.5.2-1.1-1.4.6-2.3-1.1-2.8-1.9-.5zM99.5 237c-.3.5-.1 1 .4 1 .6 0 1.1-.5 1.1-1 0-.6-.2-1-.4-1-.3 0-.8.4-1.1 1zM106.7 239c.4 1.6.8 1.8 1.9.9 1.6-1.3 1-2.9-1.1-2.9-.8 0-1.1.7-.8 2zM96.5 239c.3.5 1.4 1 2.3 1 1.5 0 1.5-.2.2-1-2-1.3-3.3-1.3-2.5 0zM111.6 238.9c-.4.5.6.8 2.1.6 1.6-.2 3.4.2 4.1.7.8.7 1.2.7 1.2 0 0-2-6.3-3.1-7.4-1.3zM226 239c-.8.5-1.1 1.2-.7 1.6.4.4 1.3.2 1.9-.4 1.5-1.5.7-2.4-1.2-1.2zM115.5 242c-.3.5-.1 1 .4 1 .6 0 1.1-.5 1.1-1 0-.6-.2-1-.4-1-.3 0-.8.4-1.1 1zM222 242c0 .5.5 1 1.1 1 .5 0 .7-.5.4-1-.3-.6-.8-1-1.1-1-.2 0-.4.4-.4 1zM318.5 244c.3.5.8 1 1.1 1 .2 0 .4-.5.4-1 0-.6-.5-1-1.1-1-.5 0-.7.4-.4 1zM110 244.7c0 .5.5 1.5 1 2.3.8 1.2 1 1.1 1-.8 0-1.2-.4-2.2-1-2.2-.5 0-1 .3-1 .7zM140 247c0 .5.5 1 1.1 1 .5 0 .7-.5.4-1-.3-.6-.8-1-1.1-1-.2 0-.4.4-.4 1zM315.8 247c3.1 1.3 2.8 3-.5 3.1-2.7 0-2.7.1-.5.9 3.2 1.3 5 .3 4.4-2.6-.3-1.8-1-2.4-3.1-2.3-2.5 0-2.5 0-.3.9zM304 250c0 .5.7 1 1.5 1s1.5-.5 1.5-1c0-.6-.7-1-1.5-1s-1.5.4-1.5 1zM150 251c0 .5.5 1 1 1 .6 0 1-.5 1-1 0-.6-.4-1-1-1-.5 0-1 .4-1 1zM216.5 252.3c-.4.9-.4 2.9 0 4.5l.8 2.7.8-2.9c1-3.5-.5-7.3-1.6-4.3zM308 252.5c0 .8-.4 1.5-1 1.5-.5 0-1 .5-1 1.2 0 .9.3.9 1.2 0 1.4-1.4 4.8-1.6 4.8-.3 0 .6-.9 1.6-2.1 2.4-1.1.8-1.6 1.8-1.1 2.1.5.3 1.5-.1 2.2-.9.6-.7 1.8-1.1 2.5-.9 1.8.7 4.1-3.4 2.6-4.9-.6-.6-1.4-.7-1.8-.2-.5.4-.2 1 .5 1.2.6.3 1 .9.6 1.4-.8 1.4-2.4 1.1-2.4-.6 0-.8-.7-1.5-1.5-1.5s-1.5-.5-1.5-1c0-.6-.4-1-1-1-.5 0-1 .7-1 1.5zM112.6 255.2c.9 3.1 2.7 4.1 3.7 2.2 1.3-2.2.1-4.4-2.3-4.4-1.8 0-2 .4-1.4 2.2zM211.4 253.8c-.9.7-3.4 5.7-3.4 6.9 0 .3.9-.5 2.1-1.8 2-2.3 2.1-2.4 3.5-.5 1.3 1.9 1.4 1.9 1.4-.6 0-2.8-2-5.1-3.6-4zM193.4 256.9c2 2.2 2.6 2.5 2.6 1.3 0-.4-1-1.3-2.2-2.1-2.3-1.4-2.3-1.4-.4.8zM318 256c0 .5.5 1 1 1 .6 0 1-.5 1-1 0-.6-.4-1-1-1-.5 0-1 .4-1 1zM51.8 256.7c.7.3 1.6.2 1.9-.1.4-.3-.2-.6-1.3-.5-1.1 0-1.4.3-.6.6zM205 257.5c0 .8.5 1.5 1 1.5.6 0 1-.7 1-1.5s-.4-1.5-1-1.5c-.5 0-1 .7-1 1.5zM136.6 259.6c-.4 1-.2 1.3.6.8s.9 0 .5 1.6c-.5 2.1-.5 2.2 1 .7.9-.8 1.3-2.3 1-3.1-.8-2-2.3-2-3.1 0zM45.5 260c.3.5 1.1 1 1.6 1 .6 0 .7-.5.4-1-.3-.6-1.1-1-1.6-1-.6 0-.7.4-.4 1zM59.3 260.7c-.3 1-.7 2-.9 2.3-.1.3 1.1.5 2.7.5 1.7 0 2.9-.5 2.9-1.3 0-.7.5-1 1.2-.6s.8.3.4-.5c-.5-.7-1.6-.9-2.8-.5-1.4.4-1.8.2-1.4-.5.4-.6.2-1.1-.4-1.1-.6 0-1.3.8-1.7 1.7zM203 260c0 .5.5 1 1.1 1 .5 0 .7-.5.4-1-.3-.6-.8-1-1.1-1-.2 0-.4.4-.4 1zM49 261.1c0 .5.5.7 1 .4.6-.3 1-.8 1-1.1 0-.2-.4-.4-1-.4-.5 0-1 .5-1 1.1zM1.3 261.7c-.7.2-1.3 2-1.3 3.9 0 2.7.4 3.4 1.9 3.4 1 0 2.3-.6 2.8-1.3C6.1 266 7 262 6 262c-.5 0-1.4-.2-2.2-.4-.7-.3-1.9-.2-2.5.1zM53 262c0 .5.5 1 1.1 1 .5 0 .7-.5.4-1-.3-.6-.8-1-1.1-1-.2 0-.4.4-.4 1zM67 261.9c0 .5.7 1.2 1.6 1.5 2.4.9 2.8.7 1.4-.9-1.4-1.7-3-2-3-.6zM193.5 262c.3.5 1.3 1 2.1 1s1.2-.5.9-1c-.3-.6-1.3-1-2.1-1s-1.2.4-.9 1zM142 267.6c0 .8-.4 1.4-1 1.4-1.5 0-1.2 2.6.5 4 .8.7 1.2 1.7.8 2.3-.4.7.2.7 1.8.2 3-1.1 12.8-1.2 28.2-.3 7.3.5 11.7.4 11.7-.2 0-.6-3.5-1.1-7.7-1.1-4.3-.1-9.4-.4-11.3-.6-1.9-.2-7.2-.5-11.7-.6-11.6-.3-10.8-2.4 1.2-3.3 3.3-.3 6.8-.7 7.9-1 1.1-.4 1.6-.2 1.2.4-.9 1.5 1.5 1.9 6.2 1 7.6-1.6 4.5-2.8-7.5-2.9-6.5-.1-13.7-.3-16-.4-3.1-.2-4.3.1-4.3 1.1z"/><path d="M183.2 267.5c-1.3.7-2.4 1.6-2.5 2.1-.1.5-2 .8-4.2.7-3.1-.2-3.5-.1-2 .6 1.1.5 3.3 1 4.8 1 1.5.1 3.9.8 5.2 1.7 3.1 2 3.2.6.3-2.6-1.7-1.8-1.8-2.2-.5-1.7.9.4 2.4 1 3.2 1.3 2.1.8 1.9-1-.2-2.8-1.5-1.2-2.2-1.3-4.1-.3z"/><path d="M177.5 268c-.3.5.1 1 .9 1 .9 0 1.6-.5 1.6-1 0-.6-.4-1-.9-1-.6 0-1.3.4-1.6 1zM41.5 272.2c-3.2 1.7-4.6 3.9-3.4 5.4.7.9.5 1.4-1 1.9-4.2 1.3-1.6 3.7 4.9 4.8 1.9.3 4.4.8 5.5 1.2l2 .7-2-1.7c-1.8-1.5-1.9-1.7-.4-2.8 1.5-1.1 1.3-1.5-1.1-3.7-1.5-1.4-3.4-2.4-4.4-2.2-2.6.5-1.9-1.6 1.2-3.2 1.5-.8 2.3-1.5 1.7-1.5-.5 0-1.9.5-3 1.1zM314.6 275.9c-.3.5.1 1.1.9 1.5.8.3 1.5.1 1.5-.4 0-1.3-1.8-2.2-2.4-1.1zM303.8 276.7c.7.3 1.6.2 1.9-.1.4-.3-.2-.6-1.3-.5-1.1 0-1.4.3-.6.6zM310.9 279.2c-.1.7-.1 2 0 2.8.1 1-.5.7-1.5-.8-1.7-2.3-5.8-3-6.9-1.2-.4.6.5 1 2 1 1.8 0 2.9.6 3.2 1.8.3 1.4 1.1 1.8 2.9 1.4 1.6-.3 2.6.1 3 1.2.4 1 1.8 1.6 3.6 1.6s2.7-.4 2.3-1c-.4-.6-1.5-1-2.5-.8-1.1.2-2-.2-2-.7-.1-.6-.8-1.8-1.7-2.7-.8-.9-1.2-2.2-.8-2.7.3-.6.1-1.1-.4-1.1-.6 0-1.2.6-1.2 1.2zM2.3 279.7c-1.6.3-2.3 1.1-2.3 2.9 0 2.2.3 2.3 4.4 1.8 3.8-.6 5.6 0 14 3.9 5.3 2.5 11.1 5.6 12.9 6.7l3.2 2.2-3.2-2.9c-1.7-1.6-6.7-4.6-11-6.8-4.3-2.1-8.7-4.7-9.8-5.6-2.4-2-5.2-2.8-8.2-2.2zM295 283.8c0 1.3-.6 2.2-1.5 2.2-1.8 0-1.9 1.2-.4 2.7.8.8.8 1.3 0 1.7-1.5 1-1.4 2.6.3 2.6.7 0 1.6-.9 1.9-2 .3-1.1.1-2-.5-2-.5 0-.6-.5-.2-1.2.9-1.5 3.5 1.9 2.7 3.7-.4 1.1.7 1.3 4.9 1.1 3-.1 5.9-.6 6.5-.9 1-.6 2.5-5.7 1.6-5.7-.2 0-2.2 1.2-4.4 2.7-4.1 2.7-4.1 2.7-5.8.7-.9-1.1-2-2.2-2.6-2.5-.5-.2-1.1-1.3-1.2-2.3-.5-2.8-1.3-3.3-1.3-.8zM56 284.1c0 .5 1 .9 2.2.9 1.2 0 1.8-.3 1.4-.7-1-1.1-3.6-1.2-3.6-.2z"/><path d="M300.6 286.7c-.6 1.4-.5 1.5.5.6.7-.7 1-1.5.7-1.8-.3-.3-.9.2-1.2 1.2zM115.7 287.7c-.4.3-.7 1.3-.7 2.2.1 1.3.3 1.3 1.1-.2 1.1-1.9.8-3.3-.4-2zM288.5 288c.3.5.8 1 1.1 1 .2 0 .4-.5.4-1 0-.6-.5-1-1.1-1-.5 0-.7.4-.4 1zM286 290.9c0 .5.5 1.3 1 1.6.6.3 1 .2 1-.4 0-.5-.4-1.3-1-1.6-.5-.3-1-.2-1 .4zM4 294c1 1.9 1.5 1.9 5.5.5 1.9-.7 1.8-.8-.5-1.5-1.4-.5-3.3-.8-4.3-.9-1.5-.1-1.6.2-.7 1.9zM.7 296.6c-.4.4-.7 5.8-.7 12.1v11.4l10.9-.2c5.9 0 11.4-.5 12.2-1 .8-.5 1-.9.4-.9-.5 0-1.1-1.2-1.2-2.7-.1-1.9.1-2.2.8-1.2.7 1.2.9 1.2.9-.1 0-1.2.2-1.2.9-.1.6 1 1 1 1.6.1.4-.6.5-1.4.2-1.7-.3-.2.2-1.3 1.1-2.4 2-2.3 6.7-2.7 5.9-.5-.4 1.1-.1 1.3 1 .9 1.2-.5 1.5-.2 1 1-.8 2.1-.8 2.1 3.8.1 4.5-1.8 8.2-.7 11.8 3.6 1.9 2.2 2.9 2.6 5.8 2.2 2.8-.4 3.2-.3 2.2.9-.9 1.2-.4 1.4 3.3 1.3 4.5-.1 7.7-1.4 3.6-1.4-1.2 0-2.2-.5-2.2-1 0-.6.7-1 1.5-1 .9 0 3.3-.9 5.5-2 2.9-1.5 3.8-2.4 3.3-3.7-.4-1-.2-1.4.5-.9.6.3 1.3.2 1.6-.3.7-1-4.4-1.7-9.2-1.3-2.4.2-3.2.7-2.8 1.8.4 1-.3 1.4-2.4 1.4-1.7 0-3 .4-3 1 0 .5.8 1 1.8 1 1.6.1 1.6.1-.1 1.1-2 1.2-5.1-.6-4.1-2.3.4-.6-.5-.3-1.8.6-2.3 1.5-2.6 1.5-4.8-.4-3-2.6-6.2-3.4-10.2-2.6-2.6.5-2.9.4-1.8-.9 1-1.2.9-1.6-.4-2.1-1-.4-1.5-1.3-1.1-2.1.3-1 .1-1.3-.9-1-1 .4-1.3.1-.9-.9.6-1.6-.8-1.9-2.3-.4-1.9 1.9-14.8 5-20.6 5-3.1 0-6.9-.5-8.5-1.1-2.5-.9-2.6-1.1-1-2.1 1.3-.7 2.7-.6 4.7.2 3.3 1.4 9.6.8 15.5-1.4l4-1.5-3.5-.1c-6.8-.4-10.7-.3-13.4.4-3.1.8-6.4-.8-7.4-3.5-.4-1.1-1.1-1.7-1.5-1.3zM13 302c0 .5-.8 1-1.7 1-1.5 0-1.6-.2-.3-1 1.9-1.2 2-1.2 2 0zm56 10.5c-.7.8-1.6 1.5-2.1 1.5s-.9-.7-.9-1.5c0-.9.9-1.5 2.1-1.5 1.8 0 1.9.2.9 1.5zM203.5 302c-.3.6.1.7.9.4 1.8-.7 2.1-1.4.7-1.4-.6 0-1.3.4-1.6 1zM101 304.5c-.8.9-.8 1.5-.2 1.5 1.2 0 2.6-1.9 1.9-2.6-.2-.2-1 .2-1.7 1.1zM81.8 305.7c.6.2 1.8.2 2.5 0 .6-.3.1-.5-1.3-.5-1.4 0-1.9.2-1.2.5zM91 306c0 .5.5 1 1 1 .6 0 1-.5 1-1 0-.6-.4-1-1-1-.5 0-1 .4-1 1z"/><path d="M33.8 317.6c-1.6.8-2.8 1.7-2.8 2 0 .3 2.9.4 6.5.2 5.4-.2 6.5-.5 6.5-2 0-2-1.1-2.3-2.7-.7-.8.8-1.3.8-1.7 0-.9-1.5-2.5-1.3-5.8.5zM55 319c0 .5.5 1 1.1 1 .5 0 .7-.5.4-1-.3-.6-.8-1-1.1-1-.2 0-.4.4-.4 1zM69.8 319.7c.6.2 1.8.2 2.5 0 .6-.3.1-.5-1.3-.5-1.4 0-1.9.2-1.2.5z"/></svg>